<svg width="535" height="322" viewBox="0 0 535 322" fill="none" xmlns="http://www.w3.org/2000/svg">
<path d="M22.9347 22.3913C22.8997 22.8113 22.5497 23.1613 21.8847 23.2313V28.5163C21.8847 29.0413 22.0597 29.1463 23.6347 29.1463H28.4647C30.5647 29.1463 32.1397 29.1463 32.7697 29.0763C33.3297 29.0413 33.4697 28.9713 33.6797 28.6563C34.0297 28.0963 34.4147 26.7663 34.9397 24.9813H35.3597L35.4297 28.7613C36.4097 29.0763 36.6547 29.3913 36.6547 29.9163C36.6547 31.2463 35.3247 31.6313 28.2547 31.6313H23.2497C19.7847 31.6313 19.0847 31.1413 19.0847 29.0413V22.0063L22.9347 22.3913ZM19.7497 6.88633C18.1397 12.1713 15.0597 16.6163 10.6497 19.9413L10.1947 19.4863C13.3797 15.9863 15.5847 11.1563 16.7047 6.32633H19.7497V6.88633ZM21.2897 0.761327C21.2197 1.25133 20.9397 1.56633 20.0647 1.70633V20.5013C20.0647 20.8163 18.8747 21.4113 17.8947 21.4113H17.3697V0.376328L21.2897 0.761327ZM23.4597 4.12133C23.4597 4.12133 25.3497 5.66133 26.4697 6.81633C26.3647 7.20133 26.0497 7.37633 25.5597 7.37633H10.9297L10.6497 6.32633H21.7797L23.4597 4.12133ZM19.7847 10.0363C27.7997 12.1013 25.6997 17.6663 23.0747 15.7763C22.7247 13.8163 21.0097 11.6113 19.4347 10.3163L19.7847 10.0363ZM37.2847 3.07133L38.7197 1.42633L41.9047 3.87633C41.6597 4.15633 41.1347 4.43633 40.3997 4.57633V20.1513C40.3647 20.3963 38.9997 21.0263 38.0547 21.0263H37.6347V3.07133H37.2847ZM38.9647 17.7713V18.7863H28.4997V17.7713H38.9647ZM38.9647 12.8363V13.8513H28.4997V12.8363H38.9647ZM38.9647 7.90133V8.91633H28.4997V7.90133H38.9647ZM29.7247 20.1163C29.7247 20.3963 28.6397 21.0263 27.4847 21.0263H27.0297V1.77633L29.8997 3.07133H39.1397V4.08633H29.7247V20.1163ZM15.6897 22.8113C16.8447 26.8713 15.3047 29.6013 13.8347 30.5813C12.8547 31.2463 11.5247 31.2813 11.1047 30.3713C10.7547 29.5313 11.2797 28.7613 12.0847 28.2713C13.5197 27.4663 15.0597 25.2963 15.1297 22.8113H15.6897ZM35.9547 22.5663C44.9497 25.8913 42.5697 32.1913 39.6997 29.9863C39.3847 27.5363 37.4247 24.5963 35.5697 22.8113L35.9547 22.5663ZM25.1047 21.0613C33.0497 23.5813 30.7047 29.1463 28.1147 27.0813C27.8347 25.0863 26.1897 22.7413 24.7197 21.3063L25.1047 21.0613ZM63.6747 11.1563C63.6747 9.23133 63.2197 8.18133 60.9097 6.50133L61.2247 5.97633C62.0647 6.08133 62.9397 6.18633 63.7447 6.53633C65.1447 7.16633 67.0347 8.84633 67.0347 10.3163C67.0347 11.9263 65.6347 14.0613 65.6347 17.8763C65.6347 21.9363 67.5597 24.1063 68.9597 24.7713C69.4847 25.0513 69.8697 24.9813 70.2197 24.4913C71.3397 22.8463 72.5297 20.3613 73.5797 18.1563L74.4547 18.5413C73.6497 20.9563 72.6347 23.9313 72.4597 25.0513C72.2147 26.7663 72.8097 26.8713 72.8097 27.7113C72.8097 28.8663 71.6547 29.4963 69.9747 28.7963C67.2097 27.6063 63.7097 24.5263 63.4997 18.1563C63.3947 15.5663 63.6747 12.9413 63.6747 11.1563ZM79.9847 10.1063L80.2647 9.33633C83.6597 9.82633 85.4797 11.0163 87.1947 12.7313C89.2247 14.7963 90.2397 18.1213 90.2397 20.5363C90.2397 22.1813 89.7147 22.9163 88.5597 22.9163C87.9647 22.9163 87.4397 22.5313 87.2297 21.6563C86.9497 20.1513 86.8097 17.4563 85.4447 14.8313C84.3247 12.6263 82.4347 11.0863 79.9847 10.1063ZM134.095 16.2663C134.76 17.1413 135.145 17.8763 135.705 17.8763C136.265 17.8763 136.65 17.4913 136.65 16.8613C136.685 16.1613 136.335 15.5663 135.53 14.7963C134.62 13.9563 133.15 13.1513 131.33 12.4863L130.91 13.0463C132.45 14.2363 133.36 15.3913 134.095 16.2663ZM137.245 13.6763C137.98 14.5513 138.365 15.2863 138.96 15.2863C139.52 15.2863 139.87 14.9013 139.87 14.2713C139.87 13.5013 139.485 12.8363 138.575 12.1013C137.7 11.4013 136.265 10.7713 134.445 10.1763L134.025 10.7363C135.67 11.9263 136.51 12.8013 137.245 13.6763ZM109.7 7.97133C110.225 8.84633 111.1 9.72133 111.94 9.72133C113.83 9.72133 120.13 7.90133 126.01 6.53633C129.93 5.59133 132.94 4.99633 134.095 4.99633C135.075 4.99633 136.055 5.13633 136.72 5.41633C137.525 5.80133 137.945 6.25633 137.945 6.85133C137.945 7.44633 137.42 7.97133 136.58 7.97133C135.81 7.97133 134.76 7.83133 133.535 7.83133C131.89 7.83133 129.51 8.04133 127.725 9.19633C126.255 10.1413 122.895 13.2913 122.895 19.9763C122.895 23.8613 124.54 25.3663 125.905 26.1713C128.075 27.4313 131.12 27.2563 132.415 27.2563C133.36 27.2563 134.62 28.0263 134.62 29.0063C134.62 30.0563 133.43 30.3713 131.855 30.3713C129.65 30.3713 126.43 30.1963 124.085 28.4813C121.845 26.9063 120.585 24.7363 120.585 20.6413C120.585 16.2313 122.16 11.7163 126.115 8.70633C126.36 8.49633 126.325 8.28633 125.94 8.39133C121.985 9.33633 117.05 11.0163 114.95 12.0663C114.215 12.4163 113.515 13.0463 112.71 13.0463C111.345 13.0463 109.385 11.2963 109.14 9.93133C109 9.30133 109.105 8.70633 109.14 8.14633L109.7 7.97133ZM163.425 0.621327L167.24 2.19633C167.065 2.58133 166.575 2.86133 165.84 2.75633C164.335 4.82133 162.48 7.02633 160.835 8.46133L160.31 8.14633C161.255 6.29133 162.48 3.28133 163.425 0.621327ZM167.1 4.85633L170.705 6.46633C170.53 6.85133 170.04 7.09633 169.305 6.99133C167.275 9.79133 163.88 13.9913 160.94 16.9663H160.205C162.48 13.5013 165.385 8.42633 167.1 4.85633ZM157.44 15.8113C159.575 15.7763 164.44 15.4263 169.445 15.0063L169.48 15.5663C167.17 16.2313 163.915 17.1063 159.4 18.1213C159.19 18.5413 158.875 18.7863 158.525 18.8563L157.44 15.8113ZM157.86 5.87133C165.175 7.79633 163.25 12.8013 160.8 11.0513C160.415 9.40633 158.84 7.37633 157.51 6.15133L157.86 5.87133ZM166.89 11.7863C173.925 15.3913 171.475 20.6063 169.095 18.5063C168.955 16.4063 167.66 13.7113 166.47 12.0313L166.89 11.7863ZM167.38 19.6263C173.855 23.7563 171.23 28.7613 168.92 26.5213C168.885 24.3863 167.835 21.6563 166.925 19.8363L167.38 19.6263ZM163.46 15.9163L166.05 15.7413V32.0163C166.05 32.2263 165.175 32.7863 163.915 32.7863H163.46V15.9163ZM159.82 19.6963L163.46 20.6413C163.32 21.0963 162.935 21.4113 162.235 21.4113C161.185 24.6313 159.68 27.7813 157.86 29.8463L157.3 29.5663C158.385 27.0113 159.365 23.2663 159.82 19.6963ZM168.745 30.9663H186.84L188.17 28.9363C188.17 28.9363 189.71 30.4063 190.55 31.4213C190.48 31.8063 190.165 31.9813 189.71 31.9813H169.025L168.745 30.9663ZM174.415 12.3813H185.475V13.3963H174.415V12.3813ZM174.415 3.38633H185.475V4.40133H174.415V3.38633ZM174.415 21.5163H185.475V22.4963H174.415V21.5163ZM172.945 3.38633V2.09133L176.095 3.38633H175.64V31.3163H172.945V3.38633ZM183.83 3.38633H183.445L185.02 1.67133L188.17 4.19133C187.925 4.50633 187.33 4.82133 186.56 4.96133V31.3163H183.83V3.38633ZM224.99 6.78133L228.77 7.90133C228.63 8.25133 228.21 8.56633 227.475 8.53133C226.74 9.93133 225.585 11.7513 224.395 13.2213H223.765C224.255 11.4013 224.78 8.70633 224.99 6.78133ZM219.11 6.85133C224.325 9.96633 221.77 13.9913 219.88 12.0663C219.915 10.4213 219.285 8.32133 218.655 7.02633L219.11 6.85133ZM233.46 3.28133C239.9 6.01133 237.45 10.6663 235.245 8.70633C235.175 6.99133 234.09 4.85633 233.04 3.52633L233.46 3.28133ZM229.435 0.586327L233.46 1.04133C233.39 1.53133 233.075 1.91633 232.235 2.05633C232.025 13.6413 232.06 24.0713 236.085 28.3763C236.505 28.9013 236.61 28.8663 236.89 28.2013C237.275 27.3263 237.87 25.6463 238.255 24.2113L238.71 24.2813L238.15 29.7063C239.025 31.1413 239.13 31.8413 238.745 32.2613C237.765 33.4163 235.84 32.2963 234.685 31.0713C229.575 25.6813 229.435 14.4813 229.435 0.586327ZM235 15.9513L238.71 17.0713C238.535 17.4563 238.255 17.6663 237.345 17.6313C235.42 23.4063 231.36 29.5663 224.01 32.7163L223.695 32.2263C229.96 28.5863 233.6 22.0763 235 15.9513ZM216.52 12.9063H234.44L236.085 10.7713C236.085 10.7713 237.975 12.2763 239.13 13.3613C239.025 13.7463 238.71 13.9213 238.22 13.9213H216.8L216.52 12.9063ZM217.115 5.45133H225.62L227.055 3.56133C227.055 3.56133 228.63 4.96133 229.61 5.90633C229.54 6.29133 229.19 6.46633 228.7 6.46633H217.395L217.115 5.45133ZM218.795 16.5463V15.3913L221.42 16.5463H226.775V17.5263H221.245V29.4263C221.245 29.6713 220.23 30.2663 219.18 30.2663H218.795V16.5463ZM225.305 16.5463H225.025L226.285 15.1813L228.98 17.2463C228.805 17.4913 228.35 17.7363 227.79 17.8063V28.3063C227.79 28.5863 226.565 29.2513 225.69 29.2513H225.305V16.5463ZM219.985 21.4113H226.74V22.4263H219.985V21.4113ZM219.985 26.5563H226.705V27.5363H219.985V26.5563ZM221.56 0.831326L225.41 1.18133C225.34 1.63633 225.06 1.95133 224.255 2.09133V5.97633H221.56V0.831326ZM210.815 16.4763L213.405 16.3013V32.0863C213.405 32.2963 212.53 32.8913 211.235 32.8913H210.815V16.4763ZM211.06 0.551327L214.735 1.77633C214.595 2.16133 214.175 2.47633 213.475 2.44133C212.32 4.22633 210.85 6.11633 209.45 7.34133L208.925 7.02633C209.695 5.41633 210.5 2.89633 211.06 0.551327ZM214 5.27633L217.465 6.78133C217.29 7.13133 216.8 7.37633 216.065 7.30633C214.595 10.0013 212.04 13.8163 209.45 16.5813H208.75C210.675 13.3613 212.845 8.70633 214 5.27633ZM206.405 15.6013C208.19 15.5663 212.145 15.2863 216.135 14.9363L216.17 15.4963C214.42 16.0563 211.795 16.8613 208.33 17.8063C208.12 18.2613 207.805 18.5063 207.455 18.5413L206.405 15.6013ZM206.965 5.55633C213.58 7.79633 211.41 12.4863 209.17 10.7363C208.995 9.05633 207.7 7.02633 206.58 5.80133L206.965 5.55633ZM214.21 12.1713C220.16 15.7763 217.71 20.3613 215.61 18.3663C215.575 16.4063 214.63 13.9563 213.755 12.3813L214.21 12.1713ZM214.42 19.6263C219.81 23.8963 217.29 28.4813 215.295 26.3813C215.4 24.2463 214.665 21.5863 213.93 19.8013L214.42 19.6263ZM207.805 19.8713L211.27 20.6063C211.165 21.0263 210.78 21.3763 210.045 21.4113C209.345 24.4213 208.33 27.6413 206.895 29.8463L206.3 29.6013C207.07 26.9413 207.63 23.2313 207.805 19.8713ZM259.605 6.15133C260.97 7.48133 261.74 8.28633 264.295 8.28633C267.445 8.21633 271.995 6.85133 274.13 5.94133C275.53 5.34633 275.81 4.96133 276.335 4.96133C277.21 4.96133 278.05 5.27633 278.05 6.11633C278.05 6.57133 277.735 6.95633 277 7.30633C275.04 8.28633 268.705 10.3863 263.7 10.3863C260.83 10.3863 260.235 9.33633 258.975 6.57133L259.605 6.15133ZM273.85 24.9463C273.85 25.8913 273.395 26.4863 272.555 26.4863C271.82 26.4863 271.155 26.0663 271.155 24.9813C271.155 23.8613 271.4 21.3063 271.33 18.9963C271.225 15.9163 270.665 14.7963 268.845 14.7963C266.955 14.7963 264.68 16.8963 263.28 18.4363C262.02 19.8363 261.005 21.6213 260.06 21.6563C259.22 21.6913 258.73 20.9913 258.695 20.0113C258.695 18.9613 259.955 18.1563 261.46 16.5463C265.1 12.9063 268.005 7.65633 268.565 5.03133C268.74 4.40133 268.635 4.12133 268.005 3.80633C267.55 3.56133 266.815 3.35133 265.975 3.17633V2.58133C266.71 2.33633 267.55 2.09133 268.145 2.09133C269.335 2.09133 271.785 2.68633 271.785 3.63133C271.785 4.12133 271.505 4.36633 271.12 5.13633C270.735 5.90633 270.105 7.20133 269.545 8.28633C268.67 9.86133 267.585 11.8563 265.52 14.5863C265.345 14.7613 265.485 14.9363 265.73 14.7963C266.85 14.1663 268.145 13.5713 269.545 13.5713C271.89 13.5713 273.29 15.1813 273.57 17.9813C273.85 20.1163 273.85 23.4413 273.85 24.9463ZM280.395 10.5263C281.795 10.7363 282.565 10.9463 283.23 11.4013C284.21 12.0313 285.365 13.3613 285.365 14.4463C285.365 15.2163 284.84 15.2513 283.335 15.7063C280.22 16.6163 275.145 18.5413 271.925 20.2913C268.39 22.2163 265.66 24.4913 265.66 26.6263C265.66 28.4113 267.62 29.3563 270.98 29.3563C276.16 29.3563 278.225 28.2363 279.8 28.2363C281.165 28.2363 282.075 28.6213 282.075 29.5313C282.075 30.1963 281.83 30.6863 280.64 31.0013C279.38 31.3863 275.775 31.9463 272.8 31.9463C266.185 31.9463 264.05 29.8113 264.05 26.9763C264.05 23.9313 267.865 20.8513 272.135 18.2613C274.97 16.5813 279.205 14.8313 281.515 13.5713C282.11 13.2563 282.18 12.9063 281.725 12.3463C281.375 11.9263 280.675 11.4713 280.01 11.1213L280.395 10.5263ZM316.62 7.51633C319.63 7.55133 326.49 7.41133 333.63 7.20133L333.665 7.79633C330.235 8.39133 325.51 9.16133 318.825 10.1063C318.615 10.5263 318.265 10.7363 317.88 10.8063L316.62 7.51633ZM329.08 3.98133C338.285 6.29133 336.535 12.7663 333.595 10.8413C333.105 8.49633 330.795 5.80133 328.73 4.26133L329.08 3.98133ZM330.48 23.9313C339.3 28.3763 336.99 34.5013 334.19 32.2263C333.77 29.6363 331.705 26.3113 330.06 24.1763L330.48 23.9313ZM323.34 0.621327L327.68 1.67133C327.54 2.09133 327.12 2.40633 326.35 2.37133C325.23 4.26133 323.305 6.81633 321.485 8.67133H320.855C321.835 6.43133 322.815 3.03633 323.34 0.621327ZM319.245 20.7463H332.965V21.7263H319.245V20.7463ZM331.88 13.9563H331.565L332.86 12.5213L335.765 14.7263C335.555 14.9363 335.065 15.2163 334.47 15.3213V22.6713C334.435 22.9163 333.105 23.4413 332.265 23.4413H331.88V13.9563ZM315.5 29.1113C318.825 29.0063 326.42 28.4463 334.505 27.7813L334.54 28.3763C330.76 29.2513 325.51 30.3363 317.985 31.7013C317.775 32.1563 317.46 32.4013 317.075 32.4713L315.5 29.1113ZM324.705 9.93133L328.38 10.3163C328.31 10.7363 328.03 11.0513 327.295 11.1563V29.3213L324.705 29.8113V9.93133ZM317.88 13.9563V12.7663L320.575 13.9563H332.895V14.9363H320.365V23.3013C320.365 23.5463 319.28 24.1063 318.265 24.1063H317.88V13.9563ZM304.79 2.61633H314.03V3.63133H305.105L304.79 2.61633ZM305.84 17.2813H313.785V18.2963H305.84V17.2813ZM306.75 9.96633H313.715V10.9813H306.75V9.96633ZM312.455 2.61633H312.105L313.505 1.07633L316.585 3.42133C316.34 3.70133 315.78 3.98133 315.08 4.12133V11.8563C315.045 12.0663 313.75 12.5913 312.875 12.5913H312.455V2.61633ZM308.675 9.96633C308.5 12.1363 308.08 17.1413 307.695 20.1163C307.065 20.5013 306.4 20.5713 305 20.3613C305.525 16.7563 306.085 11.6813 306.295 8.88133L309.165 9.96633H308.675ZM312.77 17.2813H312.385L313.855 15.7763L316.725 18.1213C316.48 18.4013 316.025 18.5763 315.29 18.6463C314.905 26.0313 314.03 30.2663 312.42 31.5963C311.475 32.4363 310.18 32.8213 308.675 32.8213C308.675 32.0513 308.57 31.3513 308.08 30.9313C307.59 30.5463 306.33 30.1963 305.07 29.9863L305.105 29.4263C306.435 29.5313 308.71 29.7413 309.41 29.7413C310.04 29.7413 310.32 29.6713 310.67 29.3563C311.685 28.4813 312.42 24.1413 312.77 17.2813ZM369.715 2.51133L370.1 1.88133C371.01 2.05633 371.745 2.19633 372.48 2.58133C373.915 3.35133 375.315 4.99633 375.315 5.94133C375.315 6.78133 374.615 7.06133 373.285 8.00633C370.87 9.89633 366.39 13.8863 364.92 15.3563C363.94 16.3363 363.695 16.7563 363.695 17.1413C363.695 17.6313 364.15 18.0863 364.92 18.6813C368.455 21.4113 371.745 23.6513 374.195 26.7663C375.245 28.0963 375.91 29.3913 375.91 30.4763C375.91 31.4563 375.385 32.2613 374.265 32.2613C373.565 32.2613 373.075 31.8063 372.76 31.2813C372.375 30.5813 372.025 29.7063 371.08 28.2363C369.505 25.8213 366.915 23.2663 362.715 19.6963C361.84 18.9613 361.385 18.1913 361.385 17.4213C361.385 16.7913 361.735 16.1613 362.33 15.4613C364.115 13.3613 369.26 8.25133 370.8 6.36133C371.36 5.66133 371.57 5.27633 371.57 4.85633C371.57 4.22633 371.01 3.45633 369.715 2.51133ZM404.085 8.18133L404.715 7.93633C405.625 9.16133 406.255 10.1413 407.48 10.1413C409.02 10.1763 417.98 8.88133 421.48 8.53133C428.095 7.83133 430.02 7.44633 430.72 7.44633C432.12 7.44633 434.115 8.21633 434.115 9.47633C434.115 10.2813 433.695 10.4913 432.89 10.4913C431.595 10.4913 429.005 9.61633 421.76 10.2463C417.7 10.5963 413.395 11.5413 411.085 12.1363C409.475 12.5563 408.775 13.1513 407.76 13.1513C406.535 13.1513 404.785 11.5063 404.4 10.4213C404.155 9.75633 404.12 8.91633 404.085 8.18133ZM416.58 4.05133L416.475 3.42133C417.175 3.00133 418.12 2.51133 419.1 2.51133C420.675 2.51133 422.985 3.35133 422.985 4.29633C422.985 5.13633 422.425 5.73133 422.355 6.60633C422.215 8.25133 422.215 13.7813 422.32 17.2463L420.22 15.2513C420.22 13.5363 419.94 8.04133 419.695 5.48633C419.66 4.78633 419.485 4.61133 418.925 4.40133C418.365 4.22633 417.595 4.15633 416.58 4.05133ZM418.785 14.2013C422.285 14.2013 423.755 16.8263 423.755 20.3613C423.755 27.0113 418.61 30.8613 411.575 32.3663L411.155 31.5613C415.425 29.9863 418.96 27.6063 420.255 24.2113C416.79 25.6113 414.06 22.8463 414.06 19.2763C414.06 16.5813 415.915 14.2013 418.785 14.2013ZM418.4 22.2863C420.15 22.2863 420.955 21.4113 420.955 19.1013C420.955 17.0013 419.94 15.7413 418.47 15.7413C416.72 15.7413 415.6 17.2463 415.6 19.0663C415.6 20.9563 416.79 22.2863 418.4 22.2863ZM460.4 4.01633C460.855 5.03133 461.45 6.08133 462.36 6.08133C463.725 6.08133 467.925 5.03133 469.605 4.54133C470.55 4.22633 470.62 3.80633 471.18 3.80633C472.405 3.80633 474.54 5.52133 474.54 6.60633C474.54 7.37633 473.63 7.48133 472.405 8.46133C470.48 9.96633 465.93 14.2363 464.425 15.8813C464.145 16.1613 464.285 16.4063 464.6 16.3013C466.105 15.7413 468.135 15.0763 470.585 15.0763C475.17 15.0763 479.09 18.0513 478.985 23.0213C478.915 27.5013 474.96 31.1413 468.135 31.1413C464.18 31.1413 461.415 29.4963 461.415 26.8363C461.415 24.8413 463.2 23.4063 465.545 23.4063C468.17 23.4063 471.04 25.0863 471.46 28.9363L469.045 29.3213C468.73 26.4163 467.05 24.7713 464.915 24.7713C463.655 24.7713 462.745 25.5063 462.745 26.6263C462.745 27.8513 464.285 28.8663 467.47 28.8663C473.49 28.8663 476.29 25.7863 476.325 22.2863C476.43 19.2063 474.155 16.3363 469.955 16.3363C464.985 16.3363 461.485 19.5913 458.545 23.3713C457.95 24.1763 457.635 24.3863 457.005 24.3863C456.48 24.3513 455.885 23.7213 455.955 22.7063C455.99 22.0063 456.375 21.4463 457.25 20.5363C462.185 15.4963 468.8 9.19633 470.34 6.78133C470.76 6.22133 470.515 6.04633 470.06 6.11633C468.87 6.36133 466.105 7.44633 464.635 8.11133C463.97 8.42633 463.445 8.98633 462.85 8.98633C461.31 8.98633 459.91 7.20133 459.7 6.15133C459.595 5.48633 459.63 4.78633 459.77 4.08633L460.4 4.01633ZM500.615 27.9213C500.615 25.2263 502.855 23.0213 505.585 23.0213C508.28 23.0213 510.485 25.2263 510.485 27.9213C510.485 30.6513 508.28 32.8913 505.585 32.8913C502.855 32.8913 500.615 30.6513 500.615 27.9213ZM501.84 27.9213C501.84 29.9863 503.485 31.6663 505.585 31.6663C507.615 31.6663 509.26 29.9863 509.26 27.9213C509.26 25.8913 507.615 24.2463 505.585 24.2463C503.485 24.2463 501.84 25.8913 501.84 27.9213Z" fill="white"/>
<path d="M105.126 321.671C104.87 321.671 104.597 321.671 104.324 321.654L102.312 321.551L99.6505 318.276L100.06 316.144C100.213 315.325 101.595 307.257 96.8019 300.349C93.1857 295.129 86.8232 291.735 77.885 290.233C47.2666 284.519 17.2452 292.059 8.76761 294.498C6.68658 295.112 4.48615 294.703 2.74627 293.389C1.0064 292.076 0 290.063 0 287.88V150.293C0 146.489 2.4563 143.214 6.10662 142.156C20.5544 137.96 70.3285 126.208 111.062 148.707C151.83 126.208 201.553 137.96 215.983 142.156C219.583 143.214 222.09 146.557 222.09 150.293V287.368C222.09 289.534 221.067 291.598 219.327 292.877C217.587 294.174 215.369 294.566 213.271 293.952C204.828 291.445 174.909 283.735 144.376 289.466C135.642 291.547 130.047 295.709 127.25 302.225C121.928 314.626 113.894 321.671 105.092 321.671H105.126ZM53.9362 279.248C62.0726 279.248 70.6867 279.88 79.4202 281.517C90.7124 283.41 99.0194 288.05 104.051 295.3C108.043 301.048 109.083 307.223 109.169 311.726C114.405 308.895 117.987 301.44 119.13 298.745C123.071 289.585 130.9 283.564 142.448 280.835L142.636 280.784C172.128 275.24 200.29 281.159 213.22 284.741V150.549C199.096 146.472 151.506 135.402 113.74 157.321C112.086 158.293 110.005 158.293 108.316 157.321C70.5844 135.402 22.9766 146.489 8.83584 150.566V285.304C17.9446 282.848 34.5928 279.265 53.9191 279.265L53.9362 279.248ZM109.339 149.679C109.339 149.679 109.322 149.679 109.305 149.696C109.305 149.696 109.322 149.696 109.339 149.679Z" fill="white"/>
<path d="M293.51 291.19C296.069 290.32 297.809 288.051 297.809 285.254C297.809 280.546 294.278 278.175 287.386 278.175H279.182C278.499 278.175 277.937 278.738 277.937 279.42V304.256C277.937 304.938 278.499 305.501 279.182 305.501H288.325C295.932 305.501 298.747 301.783 298.747 297.655C298.747 294.209 296.836 292.077 293.51 291.207V291.19ZM282.883 282.115H287.062C291.736 282.115 292.896 283.377 292.896 285.527C292.896 287.778 291.361 289.33 287.711 289.33H282.9V282.115H282.883ZM288.035 301.527H282.883V293.288H287.438C291.77 293.288 293.817 294.516 293.817 297.399C293.817 300.009 291.992 301.51 288.035 301.51V301.527Z" fill="white"/>
<path d="M318.84 293.646C322.235 292.503 324.145 290.081 324.145 286.328C324.145 280.904 320.103 278.175 313.348 278.175H304.597C303.915 278.175 303.352 278.738 303.352 279.42V304.256C303.352 304.938 303.915 305.501 304.597 305.501H307.054C307.736 305.501 308.299 304.938 308.299 304.256V294.414H313.996L319.318 304.819C319.523 305.228 319.949 305.501 320.427 305.501H323.753C324.367 305.501 324.759 304.853 324.469 304.307L318.857 293.663L318.84 293.646ZM313.007 290.439H308.282V282.166H313.007C317.186 282.166 319.216 283.241 319.216 286.328C319.216 289.416 317.169 290.439 313.007 290.439Z" fill="white"/>
<path d="M343.097 278.96C342.909 278.482 342.449 278.158 341.937 278.158H338.969C338.457 278.158 337.979 278.482 337.809 278.96L328.308 304.376C328.103 304.905 328.495 305.485 329.075 305.485H332.504C332.913 305.485 333.272 305.229 333.408 304.853L335.182 299.821H345.775L347.549 304.853C347.685 305.229 348.043 305.485 348.453 305.485H351.83C352.393 305.485 352.803 304.922 352.598 304.376L343.097 278.96ZM336.547 295.864L340.453 284.811L344.359 295.864H336.53H336.547Z" fill="white"/>
<path d="M376.871 278.158H374.585C373.903 278.158 373.34 278.721 373.34 279.403V296.973L361.621 278.738C361.399 278.38 361.007 278.175 360.581 278.175H358.244C357.561 278.175 356.999 278.738 356.999 279.42V304.256C356.999 304.939 357.561 305.502 358.244 305.502H360.529C361.212 305.502 361.775 304.939 361.775 304.256V286.926L373.357 304.922C373.579 305.28 373.971 305.485 374.397 305.485H376.854C377.536 305.485 378.099 304.922 378.099 304.239V279.403C378.099 278.721 377.536 278.158 376.854 278.158H376.871Z" fill="white"/>
<path d="M394.27 278.158H385.605C384.922 278.158 384.359 278.721 384.359 279.403V304.239C384.359 304.922 384.922 305.485 385.605 305.485H394.27C400.871 305.485 405.289 302.192 405.289 293.442V290.201C405.289 281.45 400.871 278.158 394.27 278.158ZM400.359 293.442C400.359 299.071 398.483 301.527 394.27 301.527H389.289V282.167H394.27C398.483 282.167 400.359 284.572 400.359 290.201V293.442Z" fill="white"/>
<path d="M441.246 291.19C443.805 290.32 445.544 288.051 445.544 285.254C445.544 280.546 442.014 278.175 435.122 278.175H426.918C426.235 278.175 425.672 278.738 425.672 279.42V304.256C425.672 304.938 426.235 305.501 426.918 305.501H436.06C443.668 305.501 446.483 301.783 446.483 297.655C446.483 294.209 444.572 292.077 441.246 291.207V291.19ZM430.619 282.115H434.781C439.455 282.115 440.615 283.377 440.615 285.527C440.615 287.778 439.08 289.33 435.429 289.33H430.619V282.115ZM435.77 301.527H430.619V293.288H435.173C439.506 293.288 441.553 294.516 441.553 297.399C441.553 300.009 439.728 301.51 435.77 301.51V301.527Z" fill="white"/>
<path d="M461.716 277.798C455.165 277.798 450.748 281.482 450.748 290.079V293.559C450.748 302.156 455.165 305.841 461.716 305.841C468.266 305.841 472.735 302.156 472.735 293.559V290.079C472.735 281.482 468.317 277.798 461.716 277.798ZM467.805 293.559C467.805 299.461 465.639 301.832 461.716 301.832C457.792 301.832 455.677 299.461 455.677 293.559V290.079C455.677 284.177 457.809 281.806 461.716 281.806C465.622 281.806 467.805 284.177 467.805 290.079V293.559Z" fill="white"/>
<path d="M488.445 277.798C481.894 277.798 477.477 281.482 477.477 290.079V293.559C477.477 302.156 481.894 305.841 488.445 305.841C494.995 305.841 499.464 302.156 499.464 293.559V290.079C499.464 281.482 495.046 277.798 488.445 277.798ZM494.534 293.559C494.534 299.461 492.368 301.832 488.445 301.832C484.521 301.832 482.406 299.461 482.406 293.559V290.079C482.406 284.177 484.538 281.806 488.445 281.806C492.351 281.806 494.534 284.177 494.534 290.079V293.559Z" fill="white"/>
<path d="M527.78 304.205L517.477 289.177L525.613 279.522C526.057 278.994 525.682 278.175 524.982 278.175H521.281C520.905 278.175 520.564 278.345 520.325 278.635L509.886 291.36V279.42C509.886 278.738 509.323 278.175 508.641 278.175H506.185C505.502 278.175 504.939 278.738 504.939 279.42V304.256C504.939 304.938 505.502 305.501 506.185 305.501H508.641C509.323 305.501 509.886 304.938 509.886 304.256V298.217L514.219 293.032L522.355 304.972C522.594 305.313 522.969 305.518 523.379 305.518H527.08C527.745 305.518 528.121 304.785 527.763 304.239L527.78 304.205Z" fill="white"/>
<path d="M289.792 211.734H279.233C278.551 211.734 277.988 212.297 277.988 212.979V245.133C277.988 245.815 278.551 246.378 279.233 246.378H282.577C283.259 246.378 283.822 245.815 283.822 245.133V233.721H289.792C297.826 233.721 302.551 229.696 302.551 222.668C302.551 215.64 297.775 211.717 289.792 211.717V211.734ZM289.195 228.706H283.822V216.8H289.195C294.517 216.8 296.735 218.915 296.735 222.668C296.735 226.625 294.534 228.689 289.195 228.689V228.706Z" fill="white"/>
<path d="M329.553 216.819C330.236 216.819 330.799 216.257 330.799 215.574V212.982C330.799 212.299 330.236 211.736 329.553 211.736H310.79C310.108 211.736 309.545 212.299 309.545 212.982V245.152C309.545 245.834 310.108 246.397 310.79 246.397H329.553C330.236 246.397 330.799 245.834 330.799 245.152V242.611C330.799 241.928 330.236 241.365 329.553 241.365H315.379V230.977H328.052C328.735 230.977 329.298 230.414 329.298 229.732V227.191C329.298 226.508 328.735 225.945 328.052 225.945H315.379V216.802H329.553V216.819Z" fill="white"/>
<path d="M341.05 211.736C340.368 211.736 339.805 212.299 339.805 212.982V245.135C339.805 245.817 340.368 246.38 341.05 246.38H344.393C345.075 246.38 345.638 245.817 345.638 245.135V232.325H352.359L358.722 245.715C358.909 246.124 359.319 246.38 359.779 246.38H364.231C364.811 246.38 365.169 245.783 364.931 245.272L358.09 231.37C362.099 229.92 364.368 226.849 364.368 222.073C364.368 215.199 359.592 211.736 351.609 211.736H341.05ZM358.534 222.09C358.534 225.996 356.129 227.31 351.199 227.31H345.621V216.819H351.199C356.112 216.819 358.534 218.167 358.534 222.09Z" fill="white"/>
<path d="M384.785 241.756C381.34 241.756 379.327 240.767 377.502 238.891C377.007 238.379 376.222 238.311 375.642 238.72L373.442 240.238C372.708 240.75 372.606 241.79 373.203 242.439C376.001 245.407 379.856 246.822 385.075 246.822C393.416 246.822 396.879 242.046 396.879 236.878C396.879 230.652 393.263 228.042 386.286 226.541C381.476 225.483 378.849 224.187 378.849 220.861C378.849 217.944 380.964 216.341 384.529 216.341C387.839 216.341 389.664 217.347 391.199 219.07C391.694 219.633 392.529 219.735 393.143 219.309L395.242 217.807C395.924 217.313 396.06 216.323 395.515 215.675C393.041 212.724 389.459 211.274 384.598 211.274C376.461 211.274 373.05 215.641 373.05 220.861C373.05 226.729 376.819 229.952 383.489 231.351C389.51 232.648 391.062 234.37 391.062 237.117C391.062 239.624 389.561 241.739 384.785 241.739V241.756Z" fill="white"/>
<path d="M429.801 231.264V226.847C429.801 215.947 424.581 211.29 416.803 211.29C409.024 211.29 403.839 215.964 403.839 226.847V231.264C403.839 242.164 409.059 246.838 416.803 246.838C424.547 246.838 429.801 242.164 429.801 231.264ZM423.967 231.264C423.967 238.753 421.408 241.755 416.786 241.755C412.163 241.755 409.656 238.736 409.656 231.264V226.847C409.656 219.375 412.163 216.356 416.786 216.356C421.408 216.356 423.967 219.375 423.967 226.847V231.264Z" fill="white"/>
<path d="M439.762 246.378H442.901C443.583 246.378 444.146 245.815 444.146 245.133V222.821L457.895 245.764C458.116 246.139 458.526 246.361 458.952 246.361H462.176C462.858 246.361 463.421 245.798 463.421 245.116V212.962C463.421 212.28 462.858 211.717 462.176 211.717H459.037C458.355 211.717 457.792 212.28 457.792 212.962V235.563L443.89 212.314C443.669 211.939 443.259 211.717 442.833 211.717H439.762C439.08 211.717 438.517 212.28 438.517 212.962V245.116C438.517 245.798 439.08 246.361 439.762 246.361V246.378Z" fill="white"/>
<path d="M490.918 239.199L492.982 245.459C493.17 246.005 493.665 246.38 494.244 246.38H498.185C498.799 246.38 499.242 245.766 499.038 245.186L487.694 212.572C487.524 212.077 487.046 211.736 486.517 211.736H482.765C482.236 211.736 481.758 212.077 481.588 212.572L470.244 245.186C470.04 245.766 470.483 246.38 471.097 246.38H475.089C475.669 246.38 476.18 246.005 476.351 245.459L478.415 239.199H490.918ZM484.641 220.18L489.264 234.184H480.018L484.641 220.18Z" fill="white"/>
<path d="M507.14 246.378H525.904C526.586 246.378 527.149 245.815 527.149 245.133V242.591C527.149 241.909 526.586 241.346 525.904 241.346H511.729V212.962C511.729 212.28 511.166 211.717 510.484 211.717H507.14C506.458 211.717 505.895 212.28 505.895 212.962V245.116C505.895 245.798 506.458 246.361 507.14 246.361V246.378Z" fill="white"/>
<path d="M302.175 153.379C303.557 154.693 304.256 156.399 304.256 158.463C304.256 160.168 303.762 161.738 302.806 163.085C301.834 164.45 300.452 165.593 298.695 166.463C296.921 167.35 294.84 168.049 292.521 168.578C290.201 169.089 287.591 169.431 284.776 169.567C284.316 169.567 283.958 169.772 283.719 170.147C283.48 170.539 283.446 170.932 283.616 171.324L284.964 174.36C285.152 174.838 285.476 175.23 285.919 175.503C286.277 175.725 286.687 175.844 287.13 175.844H287.318C294.653 175.264 300.486 173.439 304.666 170.42C308.879 167.384 311.011 163.392 311.011 158.565C311.011 155.887 310.363 153.533 309.066 151.554C307.77 149.576 306.03 148.057 303.864 147.085C301.715 146.113 299.258 145.618 296.546 145.618C295.335 145.618 293.987 145.721 292.538 145.925C291.139 146.113 289.604 146.42 287.983 146.812C286.329 147.222 285.032 147.563 284.043 147.836C283.105 148.109 281.894 148.467 280.239 148.996C278.738 149.473 274.132 150.974 273.365 151.281C272.614 151.588 272.444 152.066 272.751 152.885C272.921 153.345 274.098 156.228 274.098 156.228C274.269 156.689 274.576 157.03 275.036 157.217C275.497 157.405 275.941 157.388 276.367 157.183C285.186 153.362 291.889 151.435 296.324 151.435C298.832 151.435 300.793 152.1 302.175 153.413V153.379Z" fill="white"/>
<path d="M325.203 156.146C323.651 157.92 322.866 160.154 322.866 162.815C322.866 165.476 323.531 167.54 324.845 168.905C326.158 170.269 327.762 170.952 329.604 170.952H330.065V171.634C330.065 172.402 330.099 173.016 330.167 173.51C330.252 174.022 330.491 174.602 330.9 175.267C331.327 175.932 331.907 176.461 332.674 176.819C333.408 177.178 334.499 177.485 335.898 177.758C337.297 178.013 339.003 178.15 340.981 178.15C342.653 178.15 344.444 178.065 346.32 177.911C348.214 177.758 349.664 177.519 350.602 177.229C353.041 176.461 354.747 175.438 355.668 174.193C356.589 172.947 357.118 171.207 357.271 169.007C357.323 168.308 357.357 167.387 357.357 166.158V165.357C357.323 164.845 357.169 164.401 356.879 163.992C356.589 163.6 356.18 163.31 355.668 163.139L352.546 162.184C352.12 162.048 351.728 162.116 351.404 162.406C351.062 162.679 350.926 163.054 350.943 163.515C351.028 164.606 351.08 165.903 351.08 167.37C351.08 168.512 350.841 169.433 350.363 170.099C349.885 170.781 349.118 171.293 348.077 171.617C346.252 172.129 344.001 172.384 341.374 172.384C339.719 172.384 338.457 172.265 337.638 172.043C336.649 171.77 335.898 170.013 335.966 169.024C336.359 163.515 336.819 159.984 336.973 157.05C337.126 153.843 336.973 150.619 336.973 150.619C339.173 150.38 341.237 150.073 343.114 149.698C343.608 149.595 344.018 149.357 344.342 148.964C344.666 148.572 344.819 148.111 344.819 147.6V145.348C344.819 144.905 344.632 144.529 344.256 144.239C343.881 143.949 343.455 143.864 343.028 143.966C341.152 144.41 339.139 144.802 336.973 145.126C337.007 143.745 337.075 142.5 337.195 141.425C337.229 140.964 337.092 140.555 336.785 140.197C336.478 139.839 336.086 139.668 335.608 139.668H332.521C332.043 139.668 331.668 139.856 331.361 140.214C331.088 140.572 330.952 140.964 330.986 141.408C331.122 142.363 331.207 143.728 331.207 145.45V145.57H330.133C328.632 145.57 326.755 145.416 324.555 145.143C324.128 145.109 323.719 145.246 323.378 145.553C323.02 145.86 322.849 146.252 322.883 146.747L323.02 148.879C323.054 149.357 323.241 149.783 323.583 150.158C323.924 150.517 324.35 150.721 324.845 150.755C327.079 150.96 329.007 151.062 330.559 151.062H331.242V153.519C328.819 153.519 326.789 154.423 325.237 156.197L325.203 156.146ZM332.197 158.96C332.538 159.421 332.708 160.035 332.708 160.819C332.708 162.133 332.487 163.207 332.043 164.026C331.617 164.811 331.003 165.186 330.167 165.186C329.57 165.186 329.058 164.947 328.632 164.453C328.188 163.958 327.966 163.293 327.966 162.406C327.966 161.195 328.256 160.188 328.836 159.421C329.399 158.67 330.065 158.295 330.866 158.295C331.429 158.295 331.873 158.5 332.197 158.943V158.96Z" fill="white"/>
<path d="M356.095 155.428C356.419 155.752 356.828 155.94 357.306 155.974H357.391C357.835 155.974 358.21 155.803 358.517 155.479L360.376 153.62C360.735 153.262 360.922 152.818 360.922 152.289C360.922 151.829 360.752 151.42 360.428 151.044C358.057 148.537 355.686 146.37 353.366 144.631C353.008 144.375 352.615 144.238 352.189 144.238H351.984C351.506 144.307 351.063 144.511 350.688 144.869L349.17 146.388C348.863 146.695 348.709 147.053 348.709 147.462C348.709 147.991 348.914 148.434 349.306 148.776C351.592 150.652 353.86 152.886 356.112 155.445L356.095 155.428Z" fill="white"/>
<path d="M373.016 163.46C380.163 169.567 384.581 173.507 386.15 175.162C386.406 175.452 386.867 175.929 387.498 176.578C388.129 177.226 388.607 177.721 388.931 178.062C389.255 178.42 389.681 178.625 390.193 178.659H390.278C390.705 178.659 391.097 178.505 391.438 178.198L394.253 175.554C394.628 175.23 394.799 174.821 394.799 174.343C394.799 173.865 394.628 173.473 394.287 173.132C392.922 171.887 391.268 170.437 389.323 168.799C387.532 167.281 385.519 165.61 383.182 163.665L382.074 162.744C380.572 161.516 379.634 160.731 379.259 160.424C378.44 159.725 377.929 159.179 377.724 158.787C377.536 158.445 377.536 158.138 377.707 157.814C377.894 157.456 378.389 156.91 379.208 156.211C380.351 155.239 382.5 153.499 385.758 150.872C389.204 148.108 390.654 146.949 390.739 146.897C390.995 146.727 391.404 146.42 392.052 145.908C392.649 145.43 393.11 145.072 393.434 144.85C393.809 144.578 394.014 144.185 394.031 143.725C394.048 143.247 393.877 142.855 393.536 142.548L390.636 140.04C390.329 139.767 389.971 139.631 389.579 139.631H389.391C388.931 139.665 388.521 139.87 388.197 140.228C387.668 140.859 386.867 141.678 385.826 142.684C383.643 144.799 379.464 148.381 373.374 153.311C371.856 154.573 370.816 155.716 370.287 156.723C369.98 157.303 369.826 157.917 369.826 158.531C369.826 158.991 369.911 159.469 370.099 159.964C370.543 161.038 371.532 162.198 373.033 163.443L373.016 163.46Z" fill="white"/>
<path d="M394.15 150.771C394.696 151.675 395.463 152.989 396.401 154.711C396.623 155.138 396.981 155.445 397.459 155.598C397.698 155.684 397.92 155.718 398.141 155.718C398.363 155.718 398.602 155.667 398.824 155.581L399.591 155.24C400.035 155.07 400.342 154.746 400.495 154.285C400.563 154.114 400.598 153.927 400.598 153.722C400.598 153.483 400.529 153.245 400.393 152.955C399.472 151.283 398.721 149.969 398.175 149.031C397.92 148.605 397.544 148.332 397.05 148.178C396.572 148.042 396.094 148.059 395.651 148.247L394.815 148.554C394.389 148.724 394.116 149.048 393.979 149.509C393.843 149.952 393.894 150.379 394.133 150.754L394.15 150.771Z" fill="white"/>
<path d="M390.978 156.88C391.183 157.307 391.524 157.614 392.001 157.784C392.24 157.87 392.462 157.904 392.684 157.904C392.905 157.904 393.127 157.853 393.349 157.784L394.185 157.426C394.611 157.221 394.918 156.897 395.089 156.454C395.259 155.993 395.225 155.55 394.986 155.123C394.099 153.435 393.383 152.155 392.803 151.2C392.547 150.774 392.172 150.484 391.677 150.33C391.2 150.177 390.722 150.177 390.244 150.381L389.562 150.688C389.119 150.859 388.812 151.166 388.675 151.609C388.522 152.053 388.556 152.479 388.794 152.889C389.357 153.81 390.074 155.157 390.961 156.914L390.978 156.88Z" fill="white"/>
</svg>
